HIERARCHY
ROOT Hips
{
	OFFSET	0.00	0.00	0.00
	CHANNELS 6 Xposition Yposition Zposition Zrotation Xrotation Yrotation
	JOINT LeftUpLeg
	{
		OFFSET	 0.126116	-0.014019	-0.065224
		CHANNELS 3 Zrotation Xrotation Yrotation
		JOINT LeftLeg
		{
			OFFSET	 0.000000	 0.000000	 0.569914
			CHANNELS 3 Zrotation Xrotation Yrotation
			JOINT LeftFoot
			{
				OFFSET	 0.000000	 0.000000	 0.544423
				CHANNELS 3 Zrotation Xrotation Yrotation
				JOINT LeftToeBase
				{
					OFFSET	 0.000000	 0.000000	 0.207117
					CHANNELS 3 Zrotation Xrotation Yrotation
					End Site
					{
						OFFSET	 0.000000	 0.000000	 0.207117
					}
				}
			}
		}
	}
	JOINT RightUpLeg
	{
		OFFSET	-0.124023	-0.008373	-0.065224
		CHANNELS 3 Zrotation Xrotation Yrotation
		JOINT RightLeg
		{
			OFFSET	 0.000000	 0.000000	 0.570047
			CHANNELS 3 Zrotation Xrotation Yrotation
			JOINT RightFoot
			{
				OFFSET	 0.000000	 0.000000	 0.544354
				CHANNELS 3 Zrotation Xrotation Yrotation
				JOINT RightToeBase
				{
					OFFSET	 0.000000	 0.000000	 0.207540
					CHANNELS 3 Zrotation Xrotation Yrotation
					End Site
					{
						OFFSET	 0.000000	 0.000000	 0.207540
					}
				}
			}
		}
	}
	JOINT Spine
	{
		OFFSET	 0.000184	-0.007763	 0.117403
		CHANNELS 3 Zrotation Xrotation Yrotation
		JOINT Spine1
		{
			OFFSET	 0.000000	 0.000000	 0.137269
			CHANNELS 3 Zrotation Xrotation Yrotation
			JOINT Spine2
			{
				OFFSET	 0.000000	 0.000000	 0.156879
				CHANNELS 3 Zrotation Xrotation Yrotation
				JOINT LeftShoulder
				{
					OFFSET	 0.080501	-0.002496	 0.160144
					CHANNELS 3 Zrotation Xrotation Yrotation
					JOINT LeftArm
					{
						OFFSET	 0.000000	 0.000000	 0.164363
						CHANNELS 3 Zrotation Xrotation Yrotation
						JOINT LeftForeArm
						{
							OFFSET	 0.000000	 0.000000	 0.364576
							CHANNELS 3 Zrotation Xrotation Yrotation
							JOINT LeftHand
							{
								OFFSET	 0.000000	 0.000000	 0.360812
								CHANNELS 3 Zrotation Xrotation Yrotation
								JOINT LeftHandIndex1
								{
									OFFSET	 0.000000	 0.000000	 0.086006
									CHANNELS 3 Zrotation Xrotation Yrotation
									JOINT LeftHandIndex2
									{
										OFFSET	 0.000000	 0.000000	 0.047236
										CHANNELS 3 Zrotation Xrotation Yrotation
										JOINT LeftHandIndex3
										{
											OFFSET	-0.004284	-0.000551	 0.038166
											CHANNELS 3 Zrotation Xrotation Yrotation
											End Site
											{
												OFFSET	-0.004284	-0.000551	 0.038166
											}
										}
									}
								}
							}
						}
					}
				}
				JOINT Neck
				{
					OFFSET	 0.000000	 0.000000	 0.176489
					CHANNELS 3 Zrotation Xrotation Yrotation
					JOINT Head
					{
						OFFSET	 0.000000	-0.001747	 0.077940
						CHANNELS 3 Zrotation Xrotation Yrotation
						End Site
						{
							OFFSET	 0.000000	-0.001747	 0.077940
						}
					}
				}
				JOINT RightShoulder
				{
					OFFSET	-0.080363	 0.000306	 0.159706
					CHANNELS 3 Zrotation Xrotation Yrotation
					JOINT RightArm
					{
						OFFSET	 0.000000	 0.000000	 0.164196
						CHANNELS 3 Zrotation Xrotation Yrotation
						JOINT RightForeArm
						{
							OFFSET	 0.000000	 0.000000	 0.365611
							CHANNELS 3 Zrotation Xrotation Yrotation
							JOINT RightHand
							{
								OFFSET	 0.000000	 0.000000	 0.360648
								CHANNELS 3 Zrotation Xrotation Yrotation
								JOINT RightHandIndex1
								{
									OFFSET	 0.000000	 0.000000	 0.069977
									CHANNELS 3 Zrotation Xrotation Yrotation
									JOINT RightHandIndex2
									{
										OFFSET	 0.000000	 0.000000	 0.052305
										CHANNELS 3 Zrotation Xrotation Yrotation
										JOINT RightHandIndex3
										{
											OFFSET	 0.009002	-0.000782	 0.042196
											CHANNELS 3 Zrotation Xrotation Yrotation
											End Site
											{
												OFFSET	 0.009002	-0.000782	 0.042196
											}
										}
									}
								}
							}
						}
					}
				}
			}
		}
	}
}
MOTION
Frames:    6
Frame Time: 0.03333334
 0.000297	 0.019622	 1.272602	-0.002917	 0.003811	 0.174080	-17.646990	-2.065374	-179.358300	 1.460911	-12.908190	-0.755433	-2.499863	 71.759740	-4.079936	-2.385833	 28.452760	 0.000004	 17.494060	-2.181073	 179.159000	-1.453251	-12.487130	 0.716558	 2.446326	 71.356960	 3.937599	 2.384658	 28.388730	 0.000004	-4.274851	 2.659297	 0.292405	-2.157304	 3.885116	-0.794357	 6.530187	-4.780303	 1.424239	-91.776180	 78.527490	 180.000000	 70.586320	 44.921120	-53.673090	-7.692389	 4.614603	-11.617580	-30.758000	-17.261130	-4.564140	-2.635965	 4.993658	 6.788941	-5.165319	 0.784187	 3.516649	-5.225038	 0.466231	 0.424329	-0.000002	-3.783157	-0.089647	 6.345851	 4.499579	-0.249574	 89.782070	 78.203870	-180.000000	-64.971680	 42.226280	 56.231350	 7.229179	 5.226106	 12.168470	 31.448660	-18.090500	 9.288607	 6.112037	 4.509576	-0.364401	 4.968462	 1.518543	-9.347576	 5.168945	 0.703820	 2.021906
 0.000300	 0.019543	 1.273858	-0.002601	 0.004389	 0.174534	-17.642800	-2.061093	-179.359800	 1.461046	-12.898370	-0.754838	-2.539699	 71.544590	-4.038067	-2.385833	 28.452760	 0.000004	 17.489810	-2.176228	 179.159500	-1.453398	-12.475720	 0.715883	 2.484074	 71.141010	 3.898395	 2.384658	 28.388730	 0.000004	-4.239526	 2.595173	 0.281818	-2.142954	 4.107171	-0.772696	 6.485384	-5.069062	 1.433405	-91.776200	 78.527430	 180.000000	 70.641180	 44.985340	-53.585370	-7.679412	 4.627207	-11.649990	-30.878310	-18.258300	-4.601660	-2.635965	 4.993658	 6.788941	-5.165319	 0.784187	 3.516649	-5.225038	 0.466231	 0.424329	-0.000002	-3.783157	-0.089647	 6.290584	 4.370888	-0.240313	 89.782140	 78.203890	 180.000000	-65.033790	 41.766280	 56.683730	 6.617461	 5.041117	 12.099680	 31.679870	-19.527900	 9.106580	 6.112037	 4.509576	-0.364401	 4.968462	 1.518543	-9.347576	 5.168945	 0.703820	 2.021906
 0.000302	 0.019426	 1.275758	-0.002073	 0.005269	 0.173453	-17.636100	-2.053061	-179.360600	 1.461298	-12.879200	-0.753679	-2.596066	 71.222490	-3.978204	-2.385833	 28.452760	 0.000004	 17.483350	-2.169518	 179.161700	-1.453591	-12.460740	 0.714994	 2.538297	 70.821040	 3.841923	 2.384658	 28.388730	 0.000004	-4.153112	 2.500911	 0.265240	-2.104479	 4.433466	-0.734691	 6.366467	-5.496967	 1.434415	-91.776200	 78.527470	 180.000000	 70.691100	 45.094500	-53.425990	-7.654624	 4.641203	-11.685840	-31.117890	-20.205740	-4.683878	-2.635965	 4.993658	 6.788941	-5.165319	 0.784187	 3.516649	-5.225038	 0.466231	 0.424329	-0.000002	-3.783157	-0.089647	 6.157884	 4.187611	-0.225362	 89.782160	 78.203870	 179.999900	-64.933650	 40.899030	 57.921220	 5.480088	 4.492010	 11.444140	 32.180050	-22.265050	 8.810287	 6.112037	 4.509576	-0.364401	 4.968462	 1.518543	-9.347576	 5.168945	 0.703820	 2.021906
 0.000299	 0.019308	 1.277781	-0.001503	 0.006168	 0.170142	-17.628670	-2.042742	-179.359700	 1.461650	-12.853970	-0.752150	-2.651662	 70.884360	-3.918555	-2.385833	 28.452760	 0.000004	 17.476520	-2.163777	 179.165800	-1.453737	-12.448980	 0.714299	 2.592748	 70.489660	 3.785047	 2.384658	 28.388730	 0.000004	-4.020436	 2.404887	 0.247258	-2.042532	 4.765980	-0.688478	 6.176214	-5.937546	 1.418414	-91.776150	 78.527430	 180.000000	 70.687360	 45.217190	-53.199650	-7.622526	 4.651134	-11.711280	-31.451030	-22.821000	-4.814195	-2.635965	 4.993658	 6.788941	-5.165319	 0.784187	 3.516649	-5.225038	 0.466231	 0.424329	-0.000002	-3.783157	-0.089647	 5.956266	 4.007992	-0.208613	 89.782120	 78.203890	 180.000000	-64.114460	 39.653630	 59.384470	 3.710312	 3.935707	 11.040390	 32.272250	-25.883830	 8.278045	 6.112037	 4.509576	-0.364401	 4.968462	 1.518543	-9.347576	 5.168945	 0.703820	 2.021906
 0.000292	 0.019198	 1.279877	-0.000904	 0.007038	 0.164265	-17.608180	-2.030144	-179.357800	 1.462068	-12.822640	-0.750256	-2.689177	 70.534770	-3.864305	-2.385833	 28.452760	 0.000004	 17.469400	-2.159408	 179.171900	-1.453840	-12.441610	 0.713863	 2.646615	 70.151980	 3.728584	 2.384658	 28.388730	 0.000004	-3.839851	 2.309583	 0.228714	-1.955807	 5.096074	-0.635114	 5.911049	-6.379468	 1.382922	-91.776210	 78.527470	-180.000000	 70.606040	 45.342140	-52.857380	-7.689637	 4.663319	-11.742570	-31.775440	-26.061280	-4.992105	-2.635965	 4.993658	 6.788941	-5.165319	 0.784187	 3.516649	-5.225038	 0.466231	 0.424329	-0.000002	-3.783157	-0.089647	 5.683436	 3.836764	-0.190534	 89.782190	 78.203870	 179.999900	-61.516970	 37.625700	 59.525140	 0.646324	 4.141510	 13.858130	 31.148400	-30.467760	 7.017668	 6.112037	 4.509576	-0.364401	 4.968462	 1.518543	-9.347576	 5.168945	 0.703820	 2.021906
 0.000279	 0.019110	 1.281896	-0.000340	 0.007774	 0.156287	-17.601100	-2.016670	-179.353100	 1.462523	-12.788510	-0.748191	-2.738825	 70.201950	-3.810943	-2.385833	 28.452760	 0.000004	 17.472950	-2.157043	 179.178900	-1.453857	-12.439730	 0.713754	 2.709375	 69.835270	 3.673411	 2.384658	 28.388730	 0.000004	-3.628782	 2.223488	 0.211653	-1.852422	 5.394597	-0.579954	 5.596075	-6.783079	 1.330773	-91.776210	 78.527430	-180.000000	 70.410440	 45.435030	-52.386010	-7.687212	 4.674744	-11.771890	-32.235170	-29.521440	-5.244018	-2.635965	 4.993658	 6.788941	-5.165319	 0.784187	 3.516649	-5.225038	 0.466231	 0.424329	-0.000002	-3.783157	-0.089647	 5.365791	 3.688020	-0.172892	 89.782160	 78.203900	 179.999900	-57.618030	 35.410910	 62.081080	-2.498389	 3.271146	 13.702120	 29.323040	-35.015170	 5.502589	 6.112037	 4.509576	-0.364401	 4.968462	 1.518543	-9.347576	 5.168945	 0.703820	 2.021906
